<svg width="36" height="36" viewBox="0 0 36 36" fill="none" xmlns="http://www.w3.org/2000/svg">
<rect width="35" height="35" rx="17.5" fill="#131B30"/>
<path d="M23.2723 11.2471H22.3326V10.4337C22.333 7.98553 20.3487 6.00045 17.9005 6C15.4522 5.99955 13.4672 7.98385 13.4667 10.4321V11.2471H12.4805C11.1112 11.2487 10.0015 12.3584 10 13.7278V22.0756C10.0031 24.794 12.206 26.9969 14.9244 27H20.8284C23.5468 26.9969 25.7497 24.794 25.7528 22.0756V13.7278C25.7513 12.3584 24.6416 11.2487 23.2723 11.2471ZM14.9145 10.4337C14.9137 8.78506 16.2496 7.44792 17.8982 7.44714C19.5469 7.44636 20.884 8.78223 20.8848 10.4309V11.2471H14.9145V10.4337ZM24.305 22.0756C24.3028 23.9948 22.7476 25.5501 20.8283 25.5523H14.9244C13.0052 25.5501 11.45 23.9949 11.4478 22.0756V13.7278C11.4485 13.1577 11.9104 12.6956 12.4805 12.6949H23.2725C23.8425 12.6956 24.3045 13.1575 24.3051 13.7276L24.305 22.0756Z" fill="white"/>
<path d="M21.6087 13.8938C21.2089 13.8938 20.8849 14.2179 20.8849 14.6177V16.1551C20.8846 17.8038 19.5479 19.1401 17.8993 19.1398C16.2509 19.1396 14.9147 17.8034 14.9145 16.1551V14.6177C14.9145 14.2179 14.5904 13.8938 14.1907 13.8938C13.7909 13.8938 13.4668 14.2179 13.4668 14.6177V16.1551C13.4672 18.6033 15.4523 20.5876 17.9005 20.5872C20.3481 20.5867 22.3322 18.6027 22.3327 16.1551V14.6177C22.3326 14.2179 22.0085 13.8938 21.6087 13.8938Z" fill="white"/>
</svg>
