<svg width="80" height="32" viewBox="0 0 80 32" fill="none" xmlns="http://www.w3.org/2000/svg">
<g id="icon-logo" clip-path="url(#clip0_802_3005)">
<path id="Vector" fill-rule="evenodd" clip-rule="evenodd" d="M53.7576 4.8032L47.4042 5.85423L43.0328 6.57487L40.002 2.62476L36.9672 6.57487L32.6018 5.85423L26.2424 4.8032L0 0.5L22.1527 7.92736L24.5902 11.0495L34.7695 16.1146L40.002 31.5L45.2385 16.1146L55.4118 11.0495L57.8513 7.92736L80 0.5L53.7576 4.8032Z" fill="url(#paint0_linear_802_3005)"/>
<path id="Vector_2" fill-rule="evenodd" clip-rule="evenodd" d="M24.5902 11.0495L34.7695 16.1146L27.4412 5.00354L24.5902 11.0495Z" fill="url(#paint1_linear_802_3005)"/>
<path id="Vector_3" fill-rule="evenodd" clip-rule="evenodd" d="M34.7695 16.1146L38.6095 13.5562L36.9672 6.57483L34.7695 16.1146Z" fill="url(#paint2_linear_802_3005)"/>
<path id="Vector_4" fill-rule="evenodd" clip-rule="evenodd" d="M27.4412 5.00354L34.7695 16.1146L36.9672 6.57491L27.4412 5.00354Z" fill="url(#paint3_linear_802_3005)"/>
<path id="Vector_5" fill-rule="evenodd" clip-rule="evenodd" d="M38.6095 13.5563L41.6703 26.5898L45.2385 16.1147L38.6095 13.5563Z" fill="url(#paint4_linear_802_3005)"/>
<path id="Vector_6" fill-rule="evenodd" clip-rule="evenodd" d="M43.0328 6.57483L45.2385 16.1146L55.4118 11.0494L43.0328 6.57483Z" fill="url(#paint5_linear_802_3005)"/>
<path id="Vector_7" fill-rule="evenodd" clip-rule="evenodd" d="M22.1527 7.92741L24.5902 11.0495L27.4412 5.00354L22.1527 7.92741Z" fill="url(#paint6_linear_802_3005)"/>
<path id="Vector_8" fill-rule="evenodd" clip-rule="evenodd" d="M34.7695 16.1147L38.5775 27.3084L38.6095 13.5583V13.5563L34.7695 16.1147Z" fill="url(#paint7_linear_802_3005)"/>
<path id="Vector_9" fill-rule="evenodd" clip-rule="evenodd" d="M38.5775 27.3084L41.6702 26.5898L38.6095 13.5563L38.5775 27.3084Z" fill="url(#paint8_linear_802_3005)"/>
<path id="Vector_10" fill-rule="evenodd" clip-rule="evenodd" d="M61.2577 3.57254L57.8513 7.92736L80 0.5L61.2577 3.57254Z" fill="url(#paint9_linear_802_3005)"/>
<path id="Vector_11" fill-rule="evenodd" clip-rule="evenodd" d="M36.9672 6.57487H43.0328L40.002 2.62476L36.9672 6.57487Z" fill="url(#paint10_linear_802_3005)"/>
<path id="Vector_12" fill-rule="evenodd" clip-rule="evenodd" d="M43.0328 6.57484L55.4118 11.0494L61.2577 3.57251L43.0328 6.57484Z" fill="url(#paint11_linear_802_3005)"/>
<path id="Vector_13" fill-rule="evenodd" clip-rule="evenodd" d="M38.6095 13.5562L45.2385 16.1146L43.0328 6.57483L38.6095 13.5562Z" fill="url(#paint12_linear_802_3005)"/>
<path id="Vector_14" fill-rule="evenodd" clip-rule="evenodd" d="M36.9672 6.57483L38.6095 13.5562L43.0328 6.57483H36.9672Z" fill="url(#paint13_linear_802_3005)"/>
<path id="Vector_15" fill-rule="evenodd" clip-rule="evenodd" d="M0 0.5L22.1527 7.92736L27.4412 5.0035L0 0.5Z" fill="url(#paint14_linear_802_3005)"/>
<path id="Vector_16" fill-rule="evenodd" clip-rule="evenodd" d="M53.7576 4.8032L47.4042 5.85423L43.0328 6.57487L40.002 2.62476L36.9672 6.57487L32.6018 5.85423L26.2424 4.8032L0 0.5L22.1527 7.92736L24.5902 11.0495L34.7695 16.1146L40.002 31.5L45.2385 16.1146L55.4118 11.0495L57.8513 7.92736L80 0.5L53.7576 4.8032Z" fill="url(#paint15_linear_802_3005)"/>
<path id="Vector_17" fill-rule="evenodd" clip-rule="evenodd" d="M24.5902 11.0495L34.7695 16.1146L27.4412 5.00354L24.5902 11.0495Z" fill="url(#paint16_linear_802_3005)"/>
<path id="Vector_18" fill-rule="evenodd" clip-rule="evenodd" d="M34.7695 16.1146L38.6095 13.5562L36.9672 6.57483L34.7695 16.1146Z" fill="url(#paint17_linear_802_3005)"/>
<path id="Vector_19" fill-rule="evenodd" clip-rule="evenodd" d="M27.4412 5.00354L34.7695 16.1146L36.9672 6.57491L27.4412 5.00354Z" fill="url(#paint18_linear_802_3005)"/>
<path id="Vector_20" fill-rule="evenodd" clip-rule="evenodd" d="M38.6095 13.5563L41.6703 26.5898L45.2385 16.1147L38.6095 13.5563Z" fill="url(#paint19_linear_802_3005)"/>
<path id="Vector_21" fill-rule="evenodd" clip-rule="evenodd" d="M43.0328 6.57483L45.2385 16.1146L55.4118 11.0494L43.0328 6.57483Z" fill="url(#paint20_linear_802_3005)"/>
<path id="Vector_22" fill-rule="evenodd" clip-rule="evenodd" d="M22.1527 7.92741L24.5902 11.0495L27.4412 5.00354L22.1527 7.92741Z" fill="url(#paint21_linear_802_3005)"/>
<path id="Vector_23" fill-rule="evenodd" clip-rule="evenodd" d="M34.7695 16.1147L38.5775 27.3084L38.6095 13.5583V13.5563L34.7695 16.1147Z" fill="url(#paint22_linear_802_3005)"/>
<path id="Vector_24" fill-rule="evenodd" clip-rule="evenodd" d="M38.5775 27.3084L41.6702 26.5898L38.6095 13.5563L38.5775 27.3084Z" fill="url(#paint23_linear_802_3005)"/>
<path id="Vector_25" fill-rule="evenodd" clip-rule="evenodd" d="M61.2577 3.57254L57.8513 7.92736L80 0.5L61.2577 3.57254Z" fill="url(#paint24_linear_802_3005)"/>
<path id="Vector_26" fill-rule="evenodd" clip-rule="evenodd" d="M36.9672 6.57487H43.0328L40.002 2.62476L36.9672 6.57487Z" fill="url(#paint25_linear_802_3005)"/>
<path id="Vector_27" fill-rule="evenodd" clip-rule="evenodd" d="M43.0328 6.57484L55.4118 11.0494L61.2577 3.57251L43.0328 6.57484Z" fill="url(#paint26_linear_802_3005)"/>
<path id="Vector_28" fill-rule="evenodd" clip-rule="evenodd" d="M38.6095 13.5562L45.2385 16.1146L43.0328 6.57483L38.6095 13.5562Z" fill="url(#paint27_linear_802_3005)"/>
<path id="Vector_29" fill-rule="evenodd" clip-rule="evenodd" d="M36.9672 6.57483L38.6095 13.5562L43.0328 6.57483H36.9672Z" fill="url(#paint28_linear_802_3005)"/>
<path id="Vector_30" fill-rule="evenodd" clip-rule="evenodd" d="M0 0.5L22.1527 7.92736L27.4412 5.0035L0 0.5Z" fill="url(#paint29_linear_802_3005)"/>
</g>
<defs>
<linearGradient id="paint0_linear_802_3005" x1="0" y1="16.001" x2="80" y2="16.001" gradientUnits="userSpaceOnUse">
<stop stop-color="white"/>
<stop offset="1" stop-color="white" stop-opacity="0"/>
</linearGradient>
<linearGradient id="paint1_linear_802_3005" x1="24.5902" y1="10.5581" x2="34.7695" y2="10.5581" gradientUnits="userSpaceOnUse">
<stop stop-color="white"/>
<stop offset="1" stop-color="white" stop-opacity="0"/>
</linearGradient>
<linearGradient id="paint2_linear_802_3005" x1="34.7695" y1="11.3447" x2="38.6095" y2="11.3447" gradientUnits="userSpaceOnUse">
<stop stop-color="white"/>
<stop offset="1" stop-color="white" stop-opacity="0"/>
</linearGradient>
<linearGradient id="paint3_linear_802_3005" x1="27.4412" y1="10.5581" x2="36.9672" y2="10.5581" gradientUnits="userSpaceOnUse">
<stop stop-color="white"/>
<stop offset="1" stop-color="white" stop-opacity="0"/>
</linearGradient>
<linearGradient id="paint4_linear_802_3005" x1="38.6095" y1="20.073" x2="45.2385" y2="20.073" gradientUnits="userSpaceOnUse">
<stop stop-color="white"/>
<stop offset="1" stop-color="white" stop-opacity="0"/>
</linearGradient>
<linearGradient id="paint5_linear_802_3005" x1="43.0328" y1="11.3447" x2="55.4118" y2="11.3447" gradientUnits="userSpaceOnUse">
<stop stop-color="white"/>
<stop offset="1" stop-color="white" stop-opacity="0"/>
</linearGradient>
<linearGradient id="paint6_linear_802_3005" x1="22.1527" y1="8.02652" x2="27.4412" y2="8.02652" gradientUnits="userSpaceOnUse">
<stop stop-color="white"/>
<stop offset="1" stop-color="white" stop-opacity="0"/>
</linearGradient>
<linearGradient id="paint7_linear_802_3005" x1="34.7695" y1="20.4323" x2="38.6095" y2="20.4323" gradientUnits="userSpaceOnUse">
<stop stop-color="white"/>
<stop offset="1" stop-color="white" stop-opacity="0"/>
</linearGradient>
<linearGradient id="paint8_linear_802_3005" x1="38.5775" y1="20.4323" x2="41.6702" y2="20.4323" gradientUnits="userSpaceOnUse">
<stop stop-color="white"/>
<stop offset="1" stop-color="white" stop-opacity="0"/>
</linearGradient>
<linearGradient id="paint9_linear_802_3005" x1="57.8513" y1="4.21265" x2="0.199788" y2="4.21265" gradientUnits="userSpaceOnUse">
<stop stop-color="white"/>
<stop offset="1" stop-color="white" stop-opacity="0"/>
</linearGradient>
<linearGradient id="paint10_linear_802_3005" x1="36.9672" y1="4.60084" x2="43.0328" y2="4.60084" gradientUnits="userSpaceOnUse">
<stop stop-color="white"/>
<stop offset="1" stop-color="white" stop-opacity="0"/>
</linearGradient>
<linearGradient id="paint11_linear_802_3005" x1="43.0328" y1="7.30994" x2="61.2577" y2="7.30994" gradientUnits="userSpaceOnUse">
<stop stop-color="white"/>
<stop offset="1" stop-color="white" stop-opacity="0"/>
</linearGradient>
<linearGradient id="paint12_linear_802_3005" x1="38.6095" y1="11.3447" x2="45.2385" y2="11.3447" gradientUnits="userSpaceOnUse">
<stop stop-color="white"/>
<stop offset="1" stop-color="white" stop-opacity="0"/>
</linearGradient>
<linearGradient id="paint13_linear_802_3005" x1="36.9672" y1="10.0665" x2="43.0328" y2="10.0665" gradientUnits="userSpaceOnUse">
<stop stop-color="white"/>
<stop offset="1" stop-color="white" stop-opacity="0"/>
</linearGradient>
<linearGradient id="paint14_linear_802_3005" x1="0" y1="4.21265" x2="27.4412" y2="4.21265" gradientUnits="userSpaceOnUse">
<stop stop-color="white"/>
<stop offset="1" stop-color="white" stop-opacity="0"/>
</linearGradient>
<linearGradient id="paint15_linear_802_3005" x1="0" y1="16.001" x2="80" y2="16.001" gradientUnits="userSpaceOnUse">
<stop stop-color="white"/>
<stop offset="1" stop-color="white" stop-opacity="0"/>
</linearGradient>
<linearGradient id="paint16_linear_802_3005" x1="24.5902" y1="10.5581" x2="34.7695" y2="10.5581" gradientUnits="userSpaceOnUse">
<stop stop-color="white"/>
<stop offset="1" stop-color="white" stop-opacity="0"/>
</linearGradient>
<linearGradient id="paint17_linear_802_3005" x1="34.7695" y1="11.3447" x2="38.6095" y2="11.3447" gradientUnits="userSpaceOnUse">
<stop stop-color="white"/>
<stop offset="1" stop-color="white" stop-opacity="0"/>
</linearGradient>
<linearGradient id="paint18_linear_802_3005" x1="27.4412" y1="10.5581" x2="36.9672" y2="10.5581" gradientUnits="userSpaceOnUse">
<stop stop-color="white"/>
<stop offset="1" stop-color="white" stop-opacity="0"/>
</linearGradient>
<linearGradient id="paint19_linear_802_3005" x1="38.6095" y1="20.073" x2="45.2385" y2="20.073" gradientUnits="userSpaceOnUse">
<stop stop-color="white"/>
<stop offset="1" stop-color="white" stop-opacity="0"/>
</linearGradient>
<linearGradient id="paint20_linear_802_3005" x1="43.0328" y1="11.3447" x2="55.4118" y2="11.3447" gradientUnits="userSpaceOnUse">
<stop stop-color="white"/>
<stop offset="1" stop-color="white" stop-opacity="0"/>
</linearGradient>
<linearGradient id="paint21_linear_802_3005" x1="22.1527" y1="8.02652" x2="27.4412" y2="8.02652" gradientUnits="userSpaceOnUse">
<stop stop-color="white"/>
<stop offset="0.47" stop-color="white" stop-opacity="0"/>
</linearGradient>
<linearGradient id="paint22_linear_802_3005" x1="34.7695" y1="20.4323" x2="38.6095" y2="20.4323" gradientUnits="userSpaceOnUse">
<stop stop-color="white"/>
<stop offset="1" stop-color="white" stop-opacity="0"/>
</linearGradient>
<linearGradient id="paint23_linear_802_3005" x1="38.5775" y1="20.4323" x2="41.6702" y2="20.4323" gradientUnits="userSpaceOnUse">
<stop stop-color="white"/>
<stop offset="1" stop-color="white" stop-opacity="0"/>
</linearGradient>
<linearGradient id="paint24_linear_802_3005" x1="57.8513" y1="4.21265" x2="0.199788" y2="4.21265" gradientUnits="userSpaceOnUse">
<stop stop-color="white"/>
<stop offset="1" stop-color="white" stop-opacity="0"/>
</linearGradient>
<linearGradient id="paint25_linear_802_3005" x1="36.9672" y1="4.60084" x2="43.0328" y2="4.60084" gradientUnits="userSpaceOnUse">
<stop stop-color="white"/>
<stop offset="1" stop-color="white" stop-opacity="0"/>
</linearGradient>
<linearGradient id="paint26_linear_802_3005" x1="43.0328" y1="7.30994" x2="61.2577" y2="7.30994" gradientUnits="userSpaceOnUse">
<stop stop-color="white"/>
<stop offset="1" stop-color="white" stop-opacity="0"/>
</linearGradient>
<linearGradient id="paint27_linear_802_3005" x1="38.6095" y1="11.3447" x2="45.2385" y2="11.3447" gradientUnits="userSpaceOnUse">
<stop stop-color="white"/>
<stop offset="1" stop-color="white" stop-opacity="0"/>
</linearGradient>
<linearGradient id="paint28_linear_802_3005" x1="36.9672" y1="10.0665" x2="43.0328" y2="10.0665" gradientUnits="userSpaceOnUse">
<stop stop-color="white"/>
<stop offset="1" stop-color="white" stop-opacity="0"/>
</linearGradient>
<linearGradient id="paint29_linear_802_3005" x1="0" y1="4.21265" x2="27.4412" y2="4.21265" gradientUnits="userSpaceOnUse">
<stop stop-color="white"/>
<stop offset="1" stop-color="white" stop-opacity="0"/>
</linearGradient>
<clipPath id="clip0_802_3005">
<rect width="80" height="31" fill="white" transform="translate(0 0.5)"/>
</clipPath>
</defs>
</svg>
