<svg width="15" height="15" viewBox="0 0 15 15" fill="none" xmlns="http://www.w3.org/2000/svg">
<g clip-path="url(#clip0_907_8649)">
<path d="M13.9531 6.95312H8.04688V1.04688C8.04688 0.744836 7.80204 0.5 7.5 0.5C7.19796 0.5 6.95312 0.744836 6.95312 1.04688V6.95312H1.04688C0.744836 6.95312 0.5 7.19796 0.5 7.5C0.5 7.80204 0.744836 8.04688 1.04688 8.04688H6.95312V13.9531C6.95312 14.2552 7.19796 14.5 7.5 14.5C7.80204 14.5 8.04688 14.2552 8.04688 13.9531V8.04688H13.9531C14.2552 8.04688 14.5 7.80204 14.5 7.5C14.5 7.19796 14.2552 6.95312 13.9531 6.95312Z" fill="white"/>
</g>
<defs>
<clipPath id="clip0_907_8649">
<rect width="14" height="14" fill="white" transform="translate(0.5 0.5)"/>
</clipPath>
</defs>
</svg>
