<svg width="31" height="34" viewBox="0 0 31 34" fill="none" xmlns="http://www.w3.org/2000/svg">
<g id="Group">
<path id="Vector" d="M29.3383 0H1.35741C0.802147 0 0.347843 0.454303 0.347843 1.00956V13.5181C0.347843 14.0733 0.802147 14.5276 1.35741 14.5276H2.36697C2.92223 14.5276 3.37654 14.0733 3.37654 13.5181V13.831H27.3191V32.508C27.3191 33.0632 27.7735 33.5175 28.3287 33.5175H29.3383C29.8935 33.5175 30.3478 33.0632 30.3478 32.508V1.00956C30.3478 0.454303 29.8935 0 29.3383 0ZM0.333496 10.8023H3.37654V3.02869H0.333496V10.8023ZM27.3191 10.8023H3.36219V3.02869H27.3191V10.8023Z" fill="#2C3754"/>
<path id="Vector_2" d="M13.9222 8.42908H16.7489C17.3042 8.42908 17.7585 7.97478 17.7585 7.41952V6.40996C17.7585 5.85469 17.3042 5.40039 16.7489 5.40039H13.9222C13.3669 5.40039 12.9126 5.85469 12.9126 6.40996V7.41952C12.9126 7.98488 13.3669 8.42908 13.9222 8.42908Z" fill="#2C3754"/>
</g>
</svg>
