<svg width="40" height="40" viewBox="0 0 40 40" fill="none" xmlns="http://www.w3.org/2000/svg">
<rect width="40" height="40" rx="20" fill="white"/>
<g clip-path="url(#clip0_614_13596)">
<path d="M28.2751 20.871L27.55 20.2903C27.4221 20.1659 27.3794 20.0415 27.4221 20C27.4221 19.9171 27.4221 19.7926 27.55 19.7097L28.2751 19.129C29.0003 18.5484 29.2135 17.5115 28.7443 16.7235L27.2941 14.318C26.8249 13.4885 25.8012 13.1567 24.9055 13.4885L24.0524 13.8203C23.8818 13.8618 23.7538 13.8203 23.7112 13.7788C23.6685 13.7373 23.5405 13.6544 23.4979 13.4885L23.3273 12.576C23.1993 11.6636 22.3889 11 21.4078 11H18.55C17.569 11 16.7586 11.6636 16.6306 12.576L16.5026 13.4885C16.46 13.6544 16.3747 13.7373 16.2894 13.7788C16.2467 13.8203 16.1187 13.8618 15.9481 13.8203L15.0524 13.4885C14.1567 13.1567 13.1756 13.4885 12.7064 14.318L11.2988 16.7235C10.8296 17.553 11.0003 18.5484 11.768 19.129L12.4505 19.7097C12.5785 19.8341 12.5785 19.9585 12.5785 20C12.5785 20.0829 12.5785 20.2074 12.4505 20.2903L11.7254 20.871C11.0003 21.4516 10.787 22.4885 11.2562 23.2765L12.7064 25.682C13.1756 26.47 14.1993 26.8433 15.095 26.5115L15.9481 26.1797C16.1187 26.1382 16.2467 26.1797 16.2894 26.2212C16.332 26.2627 16.46 26.3456 16.5026 26.5115L16.6732 27.424C16.8439 28.3364 17.6543 29 18.5927 29H21.4505C22.4315 29 23.242 28.3364 23.3699 27.424L23.5405 26.5115C23.5832 26.3456 23.6685 26.2627 23.7538 26.2212C23.7965 26.1797 23.9244 26.1382 24.095 26.1797L24.9481 26.5115C25.8439 26.8433 26.8676 26.5115 27.3368 25.682L28.7443 23.2765C29.2135 22.4885 29.0003 21.4931 28.2751 20.871ZM24.9481 23.8571C24.095 23.5668 23.1993 23.6083 22.4315 24.0645C21.6638 24.4793 21.1519 25.2258 20.9813 26.0968L20.896 26.5115H19.0619L18.9766 26.0968C18.8486 25.2258 18.2941 24.5207 17.5263 24.0645C16.7586 23.6498 15.8202 23.5668 15.0097 23.8571L14.6259 23.9816L13.7301 22.447L14.0713 22.1982C14.7538 21.659 15.1377 20.8295 15.1377 19.9585C15.1377 19.0876 14.7538 18.2995 14.0713 17.7189L13.7301 17.47L14.6685 15.977L15.0524 16.1014C15.9055 16.3917 16.8012 16.3502 17.569 15.894C18.3368 15.4793 18.8486 14.7327 19.0192 13.8618L19.1045 13.447H20.9386L21.024 13.8618C21.1519 14.7327 21.7064 15.4378 22.4742 15.894C23.242 16.3088 24.1804 16.3917 24.9908 16.1014L25.3747 15.977L26.2704 17.5115L25.9292 17.7604C25.2467 18.2995 24.8628 19.129 24.8628 20C24.8628 20.871 25.2467 21.659 25.9292 22.2396L26.2704 22.4885L25.3747 24.023L24.9481 23.8571Z" fill="#2C3754"/>
<path d="M20.0003 16.1843C17.825 16.1843 16.0762 17.8848 16.0762 20C16.0762 22.1152 17.825 23.8157 20.0003 23.8157C22.1757 23.8157 23.9245 22.1152 23.9245 20C23.9245 17.8848 22.1757 16.1843 20.0003 16.1843ZM21.3653 20C21.3653 20.7465 20.7681 21.3272 20.0003 21.3272C19.2326 21.3272 18.6354 20.7465 18.6354 20C18.6354 19.2535 19.2326 18.6728 20.0003 18.6728C20.7681 18.6728 21.3653 19.2535 21.3653 20Z" fill="#2C3754"/>
</g>
<defs>
<clipPath id="clip0_614_13596">
<rect width="18" height="18" fill="white" transform="translate(11 11)"/>
</clipPath>
</defs>
</svg>
