<svg width="56" height="56" viewBox="0 0 56 56" fill="none" xmlns="http://www.w3.org/2000/svg">
<g id="Group">
<path id="Vector" d="M22.7909 27.3477C23.8718 27.3477 24.7444 26.4752 24.7444 25.3942V20.1849C24.7444 19.104 23.8718 18.2314 22.7909 18.2314C21.71 18.2314 20.8374 19.104 20.8374 20.1849V25.3942C20.8374 26.4752 21.71 27.3477 22.7909 27.3477Z" fill="#2C3754"/>
<path id="Vector_2" d="M54.0465 -0.000976562H1.95349C0.872558 -0.000976562 0 0.871582 0 1.95251V54.0455C0 55.1265 0.872558 55.999 1.95349 55.999H54.0465C55.1274 55.999 56 55.1265 56 54.0455V1.95251C56 0.871582 55.1274 -0.000976562 54.0465 -0.000976562ZM26.0465 52.092H3.90698V45.5804H26.0465V52.092ZM26.0465 33.2083V41.6734H3.90698V3.906H26.0465V33.2083ZM52.093 52.092H29.9535V45.5804H52.093V52.092ZM52.093 33.2083V41.6734H29.9535V3.906H52.093V33.2083Z" fill="#2C3754"/>
<path id="Vector_3" d="M33.2093 27.3477C34.2903 27.3477 35.1628 26.4752 35.1628 25.3942V20.1849C35.1628 19.104 34.2903 18.2314 33.2093 18.2314C32.1284 18.2314 31.2559 19.104 31.2559 20.1849V25.3942C31.2559 26.4752 32.1284 27.3477 33.2093 27.3477Z" fill="#2C3754"/>
</g>
</svg>
