<svg width="59" height="57" viewBox="0 0 59 57" fill="none" xmlns="http://www.w3.org/2000/svg">
<g id="Group">
<path id="Vector" d="M57.5763 0H1.75673C1.15711 0 0.666504 0.490602 0.666504 1.09023V55.3508C0.666504 55.9504 1.15711 56.441 1.75673 56.441H57.5763C58.1759 56.441 58.6665 55.9504 58.6665 55.3508V1.09023C58.6665 0.479699 58.1759 0 57.5763 0ZM27.8676 53.1594H3.93718V38.7139H27.8567V53.1594H27.8676ZM27.8676 35.4432H3.93718V20.9868H27.8567V35.4432H27.8676ZM27.8676 17.7162H3.93718V3.27068H27.8567V17.7162H27.8676ZM55.3958 53.1594H31.4654V38.7139H55.3958V53.1594ZM55.3958 35.4432H31.4654V20.9868H55.3958V35.4432ZM55.3958 17.7162H31.4654V3.27068H55.3958V17.7162Z" fill="#2C3754"/>
<path id="Vector_2" d="M40.3939 47.5773H46.4665C47.0661 47.5773 47.5567 47.0867 47.5567 46.4871V45.3969C47.5567 44.7972 47.0661 44.3066 46.4665 44.3066H40.3939C39.7943 44.3066 39.3037 44.7972 39.3037 45.3969V46.4871C39.3037 47.0867 39.7943 47.5773 40.3939 47.5773Z" fill="#2C3754"/>
<path id="Vector_3" d="M12.7567 47.5773H18.8293C19.4289 47.5773 19.9195 47.0867 19.9195 46.4871V45.3969C19.9195 44.7972 19.4289 44.3066 18.8293 44.3066H12.7567C12.1571 44.3066 11.6665 44.7972 11.6665 45.3969V46.4871C11.6665 47.0867 12.1571 47.5773 12.7567 47.5773Z" fill="#2C3754"/>
</g>
</svg>
