<svg width="65" height="65" viewBox="0 0 65 65" fill="none" xmlns="http://www.w3.org/2000/svg">
<path d="M16.2306 24H14.1621C13.5229 24 13 24.45 13 25V26C13 26.55 13.5229 27 14.1621 27H16.2306C16.8698 27 17.3927 26.55 17.3927 26V25C17.3927 24.45 16.8814 24 16.2306 24ZM50.8379 24H48.7694C48.1302 24 47.6073 24.45 47.6073 25V26C47.6073 26.55 48.1302 27 48.7694 27H50.8379C51.4771 27 52 26.55 52 26V25C52 24.45 51.4771 24 50.8379 24Z" fill="#2C3754"/>
<path d="M63.8464 20H1.14215C0.51397 20 0 20.5045 0 21.1211V22.2422C0 22.8587 0.51397 23.3632 1.14215 23.3632H4.06607V40.9529C4.06607 41.5695 4.58004 42.074 5.20822 42.074H8.66895V43.8789C8.66895 44.4955 9.18292 45 9.81111 45H10.9533C11.5814 45 12.0954 44.4955 12.0954 43.8789V42.074H25.7784C26.4066 42.074 26.9206 41.5695 26.9206 40.9529V23.3632H38.0794V40.9529C38.0794 41.5695 38.5934 42.074 39.2216 42.074H52.9046V43.8789C52.9046 44.4955 53.4186 45 54.0467 45H55.1889C55.8171 45 56.3311 44.4955 56.3311 43.8789V42.074H59.7918C60.42 42.074 60.9339 41.5695 60.9339 40.9529V23.3632H63.8578C64.486 23.3632 65 22.8587 65 22.2422V21.1211C64.9886 20.5045 64.4746 20 63.8464 20ZM57.496 31.1996V38.7108H41.5973V31.1996H57.496ZM41.4945 27.8363V23.565H57.4846V27.8363H41.4945ZM7.49253 27.8363V23.565H23.4827V27.8363H7.49253ZM23.3913 31.1996V38.7108H7.49253V31.1996H23.3913Z" fill="#2C3754"/>
</svg>
