<svg width="43" height="61" viewBox="0 0 43 61" fill="none" xmlns="http://www.w3.org/2000/svg">
<g id="Group">
<path id="Vector" d="M42.058 42.8613L39.4868 32.3638C39.4307 32.1329 39.2985 31.9277 39.1115 31.7813C38.9246 31.6348 38.6937 31.5555 38.4562 31.5562H29.9987V22.6525H38.573C39.1574 22.6525 39.6355 22.1744 39.6355 21.59V12.8244C39.6355 5.74813 33.8874 0 26.8112 0H15.9418C8.86554 0 3.11741 5.74813 3.11741 12.8244V21.59C3.11741 22.1744 3.59554 22.6525 4.17991 22.6525H12.7543V31.5562H4.29679C3.80804 31.5562 3.38304 31.8856 3.26616 32.3638L0.694914 42.8613C0.620539 43.18 0.694914 43.5094 0.886164 43.7644C1.08804 44.0194 1.39616 44.1681 1.72554 44.1681H5.32741V59.0856C5.32741 59.67 5.80554 60.1481 6.38991 60.1481H7.45241C8.03679 60.1481 8.51491 59.67 8.51491 59.0856V44.1788H34.2274V59.0963C34.2274 59.6806 34.7055 60.1588 35.2899 60.1588H36.3524C36.9368 60.1588 37.4149 59.6806 37.4149 59.0963V44.1788H41.0168C41.3462 44.1788 41.6543 44.03 41.8562 43.775C42.058 43.52 42.1324 43.18 42.058 42.8613ZM6.30491 19.465V12.8244C6.30491 7.51187 10.6293 3.1875 15.9418 3.1875H26.8112C32.1237 3.1875 36.448 7.51187 36.448 12.8244V19.465H6.30491ZM26.8112 22.6525V31.5562H15.9312V22.6525H26.8112ZM4.42429 40.9913L5.95429 34.7438H36.7774L38.3074 40.9913H4.42429Z" fill="#2C3754"/>
</g>
</svg>
