<svg width="36" height="36" viewBox="0 0 36 36" fill="none" xmlns="http://www.w3.org/2000/svg">
<rect width="36" height="36" rx="18" fill="#131B30"/>
<path d="M28.5 10.6406L25.3125 25.5469C25.0625 26.6094 24.4844 26.8906 23.5781 26.3906L18.75 22.8281L16.4062 25.0781C16.0938 25.3906 15.7656 25.5469 15.4219 25.5469L15.7969 20.625L24.75 12.5625C24.9688 12.3438 24.9688 12.2188 24.75 12.1875C24.5625 12.125 24.3594 12.1719 24.1406 12.3281L13.0781 19.3125L8.29688 17.8125C7.76562 17.6562 7.51562 17.4219 7.54688 17.1094C7.57812 16.7969 7.90625 16.5312 8.53125 16.3125L27.1406 9.09375C27.6094 8.9375 27.9844 9 28.2656 9.28125C28.5469 9.53125 28.625 9.98438 28.5 10.6406Z" fill="white"/>
</svg>
