<svg width="52" height="25" viewBox="0 0 52 25" fill="none" xmlns="http://www.w3.org/2000/svg">
<g id="Group">
<path id="Vector" d="M15.159 4.74414H12.7869C11.8025 4.74414 11.0078 5.53879 11.0078 6.52321C11.0078 7.50763 11.8025 8.30228 12.7869 8.30228H15.159C16.1434 8.30228 16.938 7.50763 16.938 6.52321C16.938 5.53879 16.1434 4.74414 15.159 4.74414ZM15.159 14.2325H12.7869C11.8025 14.2325 11.0078 15.0272 11.0078 16.0116C11.0078 16.996 11.8025 17.7907 12.7869 17.7907H15.159C16.1434 17.7907 16.938 16.996 16.938 16.0116C16.938 15.0272 16.1434 14.2325 15.159 14.2325Z" fill="#2C3754"/>
<path id="Vector_2" d="M49.5544 0H2.11257C1.12815 0 0.333496 0.794651 0.333496 1.77907V20.7558C0.333496 21.7402 1.12815 22.5349 2.11257 22.5349H5.07768V23.1279C5.07768 24.1123 5.87233 24.907 6.85675 24.907H11.6009C12.5854 24.907 13.38 24.1123 13.38 23.1279V22.5349H38.287V23.1279C38.287 24.1123 39.0816 24.907 40.0661 24.907H44.8102C45.7947 24.907 46.5893 24.1123 46.5893 23.1279V22.5349H49.5544C50.5388 22.5349 51.3335 21.7402 51.3335 20.7558V1.77907C51.3335 0.794651 50.5388 0 49.5544 0ZM24.0544 18.9767H3.89164V13.0465H24.0544V18.9767ZM24.0544 9.48837H3.89164V3.55814H24.0544V9.48837ZM47.7754 18.9767H27.6126V13.0465H47.7754V18.9767ZM47.7754 9.48837H27.6126V3.55814H47.7754V9.48837Z" fill="#2C3754"/>
<path id="Vector_3" d="M36.5081 8.30228H38.8802C39.8646 8.30228 40.6592 7.50763 40.6592 6.52321C40.6592 5.53879 39.8646 4.74414 38.8802 4.74414H36.5081C35.5237 4.74414 34.729 5.53879 34.729 6.52321C34.729 7.50763 35.5237 8.30228 36.5081 8.30228ZM36.5081 17.7907H38.8802C39.8646 17.7907 40.6592 16.996 40.6592 16.0116C40.6592 15.0272 39.8646 14.2325 38.8802 14.2325H36.5081C35.5237 14.2325 34.729 15.0272 34.729 16.0116C34.729 16.996 35.5237 17.7907 36.5081 17.7907Z" fill="#2C3754"/>
</g>
</svg>
