<svg width="36" height="36" viewBox="0 0 36 36" fill="none" xmlns="http://www.w3.org/2000/svg">
<rect width="36" height="36" rx="18" fill="#131B30"/>
<path d="M30.0469 11.5312C29.9531 12 29.5781 12.7656 28.9219 13.8281C28.2969 14.8906 27.7188 15.8281 27.1875 16.6406C26.6562 17.4219 26.375 17.8281 26.3438 17.8594C26.1562 18.1406 26.0625 18.3438 26.0625 18.4688C26.0625 18.5938 26.1562 18.8125 26.3438 19.125C26.3438 19.125 26.4375 19.2344 26.625 19.4531C26.8438 19.6719 27.0938 19.9219 27.375 20.2031C27.6562 20.4844 27.9688 20.8125 28.3125 21.1875C28.6562 21.5625 28.9688 21.9375 29.25 22.3125C29.5625 22.6562 29.8281 23.0156 30.0469 23.3906C30.2969 23.7656 30.4688 24.0781 30.5625 24.3281C30.7812 25.1094 30.4688 25.5 29.625 25.5H26.8594C26.6406 25.5 26.4531 25.4688 26.2969 25.4062C26.1406 25.3438 25.9688 25.2344 25.7812 25.0781C25.5938 24.9219 25.4219 24.75 25.2656 24.5625C25.1094 24.375 24.875 24.1094 24.5625 23.7656C24.25 23.4219 23.9375 23.0938 23.625 22.7812C22.375 21.5938 21.4531 21 20.8594 21C20.4844 21 20.2656 21.1094 20.2031 21.3281C20.1406 21.5469 20.1094 22.1719 20.1094 23.2031C20.1406 23.7031 20.1562 24.1094 20.1562 24.4219C20.1562 24.7969 20.0312 25.0781 19.7812 25.2656C19.5312 25.4219 18.9844 25.5 18.1406 25.5C16.6719 25.5 15.1875 25.0625 13.6875 24.1875C12.1875 23.3125 10.875 22.0625 9.75 20.4375C8.6875 19 7.79688 17.5781 7.07812 16.1719C6.39062 14.7344 5.9375 13.6406 5.71875 12.8906C5.5 12.1406 5.39062 11.6094 5.39062 11.2969C5.39062 10.7656 5.70312 10.5 6.32812 10.5H9.09375C9.4375 10.5 9.6875 10.5781 9.84375 10.7344C10.0312 10.8906 10.1875 11.1719 10.3125 11.5781C10.9688 13.4844 11.7656 15.1875 12.7031 16.6875C13.6719 18.1875 14.4062 18.9375 14.9062 18.9375C15.0938 18.9375 15.2188 18.875 15.2812 18.75C15.375 18.5938 15.4219 18.3125 15.4219 17.9062V13.8281C15.3906 13.3906 15.3125 13.0156 15.1875 12.7031C15.0625 12.3906 14.9375 12.1719 14.8125 12.0469C14.6875 11.8906 14.5625 11.7344 14.4375 11.5781C14.3438 11.4219 14.2969 11.2812 14.2969 11.1562C14.2969 11.0312 14.3281 10.9219 14.3906 10.8281C14.4531 10.7344 14.5312 10.6562 14.625 10.5938C14.75 10.5312 14.875 10.5 15 10.5H19.3594C19.8594 10.5 20.1094 10.8438 20.1094 11.5312V16.9688C20.1094 17.5 20.25 17.7656 20.5312 17.7656C20.8438 17.7656 21.2812 17.4844 21.8438 16.9219C22.4375 16.2656 23.0156 15.4688 23.5781 14.5312C24.1406 13.5938 24.5625 12.8125 24.8438 12.1875L25.2656 11.2969C25.4844 10.7656 25.875 10.5 26.4375 10.5H29.2031C29.9531 10.5 30.2344 10.8438 30.0469 11.5312Z" fill="white"/>
</svg>
